<?xml version="1.0" encoding="utf-8"?>
<!-- Generator: Adobe Illustrator 23.1.1, SVG Export Plug-In . SVG Version: 6.00 Build 0)  -->
<svg version="1.1" id="Layer_1" xmlns="http://www.w3.org/2000/svg" xmlns:xlink="http://www.w3.org/1999/xlink" x="0px" y="0px"
	 viewBox="0 0 595.28 93.53" style="enable-background:new 0 0 595.28 93.53;" xml:space="preserve">
<style type="text/css">
	.st0{fill:#15254A;}
	.st1{fill:#FCB53C;}
	.st2{clip-path:url(#SVGID_2_);}
	.st3{fill:#002337;}
	.st4{fill:#7D6EAD;}
	.st5{fill:#3482C4;}
	.st6{fill:#FCD8D9;}
	.st7{fill:#00B7E7;}
	.st8{fill:#FDBE2D;}
	.st9{fill:#75C158;}
	.st10{fill:#C571AE;}
	.st11{fill:#E0472D;}
	.st12{fill:#F68A32;}
	.st13{fill:none;stroke:#FFFFFF;stroke-width:2;stroke-miterlimit:10;}
	.st14{fill:#8BBD5D;}
	.st15{fill:#F7E24E;}
	.st16{clip-path:url(#SVGID_4_);}
	.st17{fill:#4EC6F2;}
</style>
<g>
	<g>
		<polygon class="st0" points="570.19,49.02 552.64,66.57 527.42,66.57 527.42,42.14 545.37,24.2 545.37,49.02 		"/>
		<rect x="545.37" y="24.2" class="st1" width="24.83" height="24.83"/>
		<path class="st0" d="M561.06,39.98c-0.26-0.09-0.5-0.15-0.81-0.15c-0.41,0-0.64,0.21-0.64,0.68v0.25h1.44v1.45h-1.41v4.74h-1.77
			V42.2h-0.74v-1.46h0.74v-0.4c0-0.69,0.17-1.19,0.5-1.52c0.33-0.33,0.81-0.49,1.44-0.49c0.56,0,0.93,0.07,1.26,0.18V39.98z"/>
		<path class="st0" d="M565.11,47.06c-1.24,0-2.49-0.43-3.47-1.31l1.06-1.27c0.74,0.61,1.51,0.99,2.44,0.99
			c0.73,0,1.18-0.29,1.18-0.79c0-0.46-0.28-0.69-1.65-1.04c-1.65-0.42-2.71-0.88-2.71-2.52c0-1.48,1.19-2.46,2.86-2.46
			c1.19,0,2.21,0.37,3.03,1.04l-0.93,1.35c-0.72-0.5-1.44-0.8-2.13-0.8c-0.69,0-1.05,0.31-1.05,0.73c0,0.54,0.35,0.71,1.76,1.07
			c1.66,0.43,2.59,1.03,2.59,2.48C568.11,46.14,566.87,47.06,565.11,47.06"/>
		<path class="st0" d="M551.81,38.63c-2.52,0-4.36,1.9-4.36,4.23c0,2.35,1.81,4.23,4.33,4.23c2.52,0,4.35-1.9,4.35-4.23
			C556.14,40.51,554.33,38.63,551.81,38.63 M551.81,45.42c-1.45,0-2.48-1.17-2.48-2.57c0-1.43,1.01-2.57,2.45-2.57
			s2.47,1.17,2.47,2.57C554.26,44.28,553.26,45.42,551.81,45.42"/>
		<path class="st0" d="M459.66,45.2c0-2.82,2.18-5.18,5.25-5.18c3.08,0,5.22,2.33,5.22,5.18c0,2.82-2.18,5.18-5.25,5.18
			S459.66,48.05,459.66,45.2 M468.29,45.2c0-1.94-1.42-3.56-3.41-3.56c-1.99,0-3.38,1.59-3.38,3.56c0,1.95,1.42,3.56,3.41,3.56
			C466.9,48.77,468.29,47.18,468.29,45.2"/>
		<path class="st0" d="M484.25,46.45c0-2.15,1.66-3.95,3.92-3.95c1.43,0,2.32,0.53,3.02,1.3l-1.07,1.16
			c-0.53-0.56-1.09-0.94-1.96-0.94c-1.26,0-2.18,1.09-2.18,2.43c0,1.35,0.93,2.43,2.26,2.43c0.82,0,1.42-0.39,1.96-0.94l1.05,1.03
			c-0.74,0.83-1.62,1.42-3.09,1.42C485.91,50.38,484.25,48.62,484.25,46.45"/>
		<path class="st0" d="M492.31,46.43c0-2.16,1.53-3.94,3.69-3.94c2.4,0,3.62,1.89,3.62,4.06c0,0.11-0.01,0.4-0.03,0.49h-5.55
			c0.19,1.23,1.06,1.92,2.18,1.92c0.84,0,1.45-0.32,2.05-0.9l1.02,0.9c-0.71,0.86-1.7,1.42-3.09,1.42
			C494,50.38,492.31,48.8,492.31,46.43 M497.91,45.9c-0.11-1.12-0.77-1.99-1.92-1.99c-1.06,0-1.8,0.82-1.96,1.99H497.91z"/>
		<path class="st0" d="M504.34,44.14h-0.96V42.7h0.96v-0.55c0-0.84,0.21-1.47,0.62-1.87c0.4-0.4,0.96-0.6,1.7-0.6
			c0.6,0,1.02,0.09,1.4,0.2v1.46c-0.34-0.11-0.64-0.19-1.02-0.19c-0.66,0-1,0.36-1,1.15v0.41h2v1.43h-1.98v6.07h-1.73V44.14z"/>
		<path class="st0" d="M508.72,46.45c0-2.16,1.72-3.95,4.04-3.95c2.32,0,4.02,1.76,4.02,3.95c0,2.15-1.72,3.94-4.05,3.94
			C510.42,50.38,508.72,48.62,508.72,46.45 M515.05,46.45c0-1.33-0.96-2.43-2.32-2.43c-1.39,0-2.28,1.09-2.28,2.43
			c0,1.32,0.96,2.43,2.3,2.43C514.16,48.88,515.05,47.78,515.05,46.45"/>
		<path class="st0" d="M518.21,42.66h1.73v1.7c0.47-1.13,1.34-1.9,2.67-1.85v1.83h-0.1c-1.52,0-2.57,0.99-2.57,2.99v2.88h-1.73
			V42.66z"/>
		<path class="st0" d="M460.42,65.07l1.07-1.27c0.97,0.84,1.93,1.31,3.19,1.31c1.1,0,1.79-0.5,1.79-1.3c0-0.72-0.4-1.11-2.28-1.56
			c-2.15-0.5-3.36-1.14-3.36-3.03c0-1.73,1.44-2.93,3.45-2.93c1.47,0,2.64,0.45,3.67,1.27l-0.95,1.34
			c-0.91-0.68-1.82-1.04-2.74-1.04c-1.04,0-1.64,0.53-1.64,1.22c0,0.78,0.46,1.13,2.39,1.59c2.14,0.52,3.25,1.28,3.25,2.99
			c0,1.89-1.49,3.02-3.61,3.02C463.09,66.68,461.63,66.15,460.42,65.07"/>
		<path class="st0" d="M470.49,64.43v-4.01h-0.97v-1.5h0.97v-2.09h1.75v2.09h2.05v1.5h-2.05v3.74c0,0.68,0.35,0.95,0.94,0.95
			c0.39,0,0.74-0.09,1.08-0.26v1.43c-0.43,0.24-0.92,0.39-1.57,0.39C471.4,66.67,470.49,66.1,470.49,64.43"/>
		<path class="st0" d="M475.85,63.77v-4.85h1.75v4.33c0,1.18,0.59,1.86,1.63,1.86c1.01,0,1.72-0.7,1.72-1.89v-4.3h1.75v7.62h-1.75
			v-1.18c-0.49,0.72-1.2,1.34-2.38,1.34C476.85,66.7,475.85,65.54,475.85,63.77"/>
		<path class="st0" d="M484.15,62.71c0-2.52,1.72-3.95,3.54-3.95c1.26,0,2.05,0.63,2.6,1.34V56h1.75v10.53h-1.75v-1.27
			c-0.56,0.79-1.36,1.43-2.6,1.43C485.9,66.7,484.15,65.27,484.15,62.71 M490.31,62.71c0-1.47-1.04-2.44-2.21-2.44
			c-1.2,0-2.19,0.92-2.19,2.47c0,1.47,1.01,2.44,2.19,2.44C489.27,65.18,490.31,64.2,490.31,62.71"/>
		<path class="st0" d="M493.49,62.73c0-2.18,1.54-3.97,3.72-3.97c2.42,0,3.65,1.9,3.65,4.1c0,0.12-0.01,0.4-0.03,0.49h-5.6
			c0.19,1.24,1.07,1.93,2.19,1.93c0.85,0,1.46-0.32,2.06-0.91l1.02,0.91c-0.72,0.86-1.72,1.43-3.12,1.43
			C495.2,66.71,493.49,65.11,493.49,62.73 M499.13,62.19c-0.12-1.12-0.78-2-1.93-2c-1.07,0-1.82,0.82-1.98,2H499.13z"/>
		<path class="st0" d="M502.41,58.92h1.75v1.18c0.49-0.72,1.2-1.34,2.38-1.34c1.72,0,2.71,1.15,2.71,2.93v4.85h-1.75v-4.33
			c0-1.18-0.59-1.86-1.63-1.86c-1.01,0-1.72,0.71-1.72,1.89v4.3h-1.75V58.92z"/>
		<path class="st0" d="M511.72,64.43v-4.01h-0.97v-1.5h0.97v-2.09h1.75v2.09h2.05v1.5h-2.05v3.74c0,0.68,0.35,0.95,0.94,0.95
			c0.39,0,0.74-0.09,1.08-0.26v1.43c-0.43,0.24-0.92,0.39-1.57,0.39C512.63,66.67,511.72,66.1,511.72,64.43"/>
		<path class="st0" d="M516.81,65.54l0.78-1.18c0.82,0.62,1.72,0.94,2.5,0.94c0.75,0,1.18-0.32,1.18-0.85
			c0-0.56-0.74-0.76-1.57-1.01l-0.13-0.04c-1.13-0.33-2.38-0.8-2.38-2.28c0-1.44,1.2-2.32,2.71-2.32c0.95,0,1.99,0.33,2.8,0.87
			l-0.69,1.24c-0.74-0.45-1.52-0.72-2.15-0.72c-0.68,0-1.07,0.32-1.07,0.79c0,0.52,0.74,0.75,1.57,1.02l0.15,0.04
			c1.11,0.35,2.37,0.85,2.37,2.25c0,1.6-1.24,2.39-2.83,2.39C518.96,66.68,517.77,66.29,516.81,65.54"/>
		<path class="st0" d="M481.09,42.71L481.09,42.71l-2.61,0V42.3c0-0.79,0.34-1.15,1-1.15c0.37,0,1.09,0.07,1.44,0.19v-1.46
			l-0.41-0.1c-0.39-0.08-0.79-0.12-1.39-0.08c-0.45,0.03-1.27,0.22-1.68,0.66c-0.34,0.37-0.69,1.07-0.65,1.78v0.02l0.02,0.56h-0.63
			v0h-2V42.3c0-0.79,0.34-1.15,1-1.15c0.37,0,0.67,0.07,1.02,0.19v-1.46c-0.39-0.12-0.8-0.2-1.4-0.2c-0.74,0-1.3,0.2-1.7,0.6
			c-0.4,0.4-0.62,1.03-0.62,1.88v0.55h-0.96v1.44h0.96v6.07h1.73v-6.07h1.63h0.34h0.62v6.07h1.73v-6.07h2.58v6.07h1.75v-7.5H481.09z
			"/>
	</g>
	<g>
		<defs>
			<rect id="SVGID_1_" x="306.16" y="24.19" width="136.88" height="42.53"/>
		</defs>
		<clipPath id="SVGID_2_">
			<use xlink:href="#SVGID_1_"  style="overflow:visible;"/>
		</clipPath>
		<path class="st2" d="M360.9,35.44c-0.61-0.82-1.18-1.61-1.77-2.43l-0.02,0.01c0.01,0.9,0.02,1.81,0.02,2.72v3.5h-1.99v-9.41h1.95
			l2.82,3.8c0.61,0.82,1.18,1.61,1.77,2.43l0.03-0.01c-0.01-0.9-0.03-1.81-0.03-2.72v-3.5h1.99v9.41h-1.95L360.9,35.44z"/>
		<path class="st2" d="M370.38,32.7c2.04,0,3.56,1.46,3.56,3.34c0,1.89-1.52,3.34-3.56,3.34c-2.04,0-3.56-1.46-3.56-3.34
			C366.82,34.15,368.34,32.7,370.38,32.7 M370.38,37.68c0.9,0,1.59-0.73,1.59-1.64c0-0.91-0.69-1.64-1.59-1.64
			c-0.9,0-1.59,0.73-1.59,1.64C368.79,36.95,369.48,37.68,370.38,37.68"/>
		<path class="st2" d="M375.09,32.84h1.94v0.86l0.03,0.01c0.44-0.62,1.07-0.95,1.86-0.95c0.13,0,0.27,0.01,0.42,0.05v1.86
			c-0.16-0.04-0.35-0.07-0.53-0.07c-0.69,0-1.26,0.21-1.73,0.75v3.88h-1.98V32.84z"/>
		<path class="st2" d="M385.12,39.03c-0.3,0.2-0.88,0.35-1.44,0.35c-0.65,0-1.26-0.21-1.66-0.64c-0.34-0.36-0.56-0.9-0.56-1.91
			v-2.35h-1.04v-1.64h1.04v-1.66l1.98-0.34v2h1.69v1.64h-1.69v2.15c0,0.62,0.14,1.09,0.74,1.09c0.32,0,0.69-0.13,0.95-0.26V39.03z"
			/>
		<path class="st2" d="M386.43,29.82h1.98v3.59l0.03,0.01c0.47-0.39,1.14-0.73,1.95-0.73c0.68,0,1.28,0.23,1.68,0.65
			c0.39,0.42,0.56,0.98,0.56,1.9v3.99h-1.98v-3.67c0-0.48-0.07-0.72-0.22-0.9c-0.17-0.2-0.4-0.27-0.68-0.27
			c-0.51,0-0.99,0.26-1.34,0.53v4.31h-1.98V29.82z"/>
		<path class="st2" d="M398.16,38.63c-0.49,0.43-1.12,0.75-1.95,0.75c-0.74,0-1.3-0.26-1.67-0.64c-0.42-0.43-0.61-1.01-0.61-1.96
			v-3.94h1.98v3.64c0,0.47,0.08,0.74,0.25,0.92c0.17,0.19,0.43,0.29,0.7,0.29c0.49,0,0.99-0.27,1.3-0.57v-4.28h1.98v6.4h-1.95v-0.6
			L398.16,38.63z"/>
		<path class="st2" d="M409.72,35.54c0-0.48-0.08-0.7-0.23-0.87c-0.18-0.19-0.42-0.27-0.68-0.27c-0.46,0-0.92,0.23-1.26,0.53
			c0.01,0.09,0.01,0.19,0.01,0.29v4.02h-1.98v-3.69c0-0.43-0.06-0.69-0.23-0.87c-0.18-0.19-0.42-0.27-0.68-0.27
			c-0.45,0-0.92,0.25-1.25,0.52v4.32h-1.98v-6.4h1.95v0.57l0.03,0.01c0.49-0.42,1.14-0.73,1.92-0.73c0.69,0,1.48,0.27,1.86,0.91
			c0.69-0.61,1.44-0.91,2.25-0.91c0.72,0,1.28,0.25,1.65,0.64c0.4,0.42,0.58,0.98,0.58,1.89v4.02h-1.98V35.54z"/>
		<path class="st2" d="M413,29.82h1.98v3.3l0.03,0.01c0.39-0.26,0.96-0.44,1.57-0.44c1.59,0,3.02,1.24,3.02,3.23
			c0,2.03-1.47,3.46-3.46,3.46c-0.62,0-1.14-0.14-1.59-0.33L413,39.31V29.82z M415.99,37.78c1.07,0,1.61-0.83,1.61-1.77
			c0-0.94-0.56-1.67-1.53-1.67c-0.43,0-0.81,0.14-1.09,0.31v2.87C415.24,37.68,415.63,37.78,415.99,37.78"/>
		<path class="st2" d="M420.67,32.84h1.94v0.86l0.03,0.01c0.44-0.62,1.07-0.95,1.86-0.95c0.13,0,0.27,0.01,0.42,0.05v1.86
			c-0.16-0.04-0.35-0.07-0.53-0.07c-0.69,0-1.26,0.21-1.73,0.75v3.88h-1.98V32.84z"/>
		<path class="st2" d="M427.09,29.68c0.62,0,1.14,0.51,1.14,1.13c0,0.62-0.52,1.13-1.14,1.13s-1.14-0.51-1.14-1.13
			C425.95,30.18,426.47,29.68,427.09,29.68 M426.11,32.84h1.98v6.4h-1.98V32.84z"/>
		<path class="st2" d="M433.3,38.85c-0.42,0.3-1.05,0.53-1.78,0.53c-0.55,0-1.07-0.13-1.48-0.42c-0.47-0.33-0.75-0.83-0.75-1.5
			c0-0.7,0.33-1.24,0.78-1.55c0.49-0.34,1.13-0.45,1.79-0.45c0.38,0,0.75,0.04,1.11,0.12v-0.25c0-0.31-0.1-0.54-0.25-0.67
			c-0.18-0.17-0.52-0.27-0.99-0.27c-0.72,0-1.37,0.24-1.87,0.51v-1.7c0.52-0.26,1.3-0.49,2.24-0.49c0.86,0,1.63,0.19,2.13,0.61
			c0.48,0.39,0.71,0.96,0.71,1.77v2.17c0,0.3,0.12,0.51,0.39,0.51c0.11,0,0.22-0.03,0.32-0.08v1.48c-0.22,0.12-0.57,0.2-0.95,0.2
			c-0.52,0-1.03-0.14-1.38-0.51H433.3z M432.96,36.73c-0.21-0.06-0.5-0.09-0.7-0.09c-0.51,0-1.01,0.16-1.01,0.65
			c0,0.42,0.36,0.64,0.82,0.64c0.34,0,0.66-0.12,0.9-0.26V36.73z"/>
		<path class="st2" d="M365.35,47.72c0,1.42-0.2,2.45-0.73,3.2c-0.66,0.95-1.87,1.51-3.38,1.51c-1.51,0-2.73-0.56-3.39-1.53
			c-0.51-0.75-0.7-1.78-0.7-3.12v-4.9h2.07v4.83c0,1,0.09,1.61,0.36,2.05c0.29,0.45,0.83,0.82,1.72,0.82c0.82,0,1.35-0.3,1.66-0.78
			c0.29-0.44,0.4-1.09,0.4-2.08v-4.84h1.99V47.72z"/>
		<path class="st2" d="M366.66,45.88h1.95v0.59l0.03,0.01c0.49-0.4,1.17-0.74,1.98-0.74c0.68,0,1.28,0.24,1.68,0.65
			c0.39,0.42,0.56,0.97,0.56,1.9v3.99h-1.98v-3.67c0-0.48-0.07-0.71-0.22-0.9c-0.17-0.19-0.4-0.27-0.68-0.27
			c-0.51,0-0.99,0.26-1.34,0.53v4.3h-1.98V45.88z"/>
		<path class="st2" d="M375.15,42.72c0.62,0,1.15,0.51,1.15,1.13c0,0.62-0.52,1.13-1.15,1.13c-0.62,0-1.14-0.51-1.14-1.13
			C374,43.23,374.52,42.72,375.15,42.72 M374.16,45.88h1.98v6.4h-1.98V45.88z"/>
		<path class="st2" d="M377.09,45.88h2.08l0.75,2.06c0.25,0.67,0.49,1.38,0.72,2.03h0.03c0.23-0.65,0.51-1.38,0.77-2.04l0.79-2.04
			h1.95l-2.6,6.4h-1.89L377.09,45.88z"/>
		<path class="st2" d="M386.33,49.6c0.22,0.89,0.95,1.29,1.86,1.29c0.72,0,1.5-0.25,2.17-0.7v1.65c-0.62,0.39-1.59,0.59-2.43,0.59
			c-2.11,0-3.63-1.31-3.63-3.32c0-2.04,1.59-3.37,3.36-3.37c1.57,0,3.05,1.04,3.05,3.19c0,0.22-0.01,0.51-0.04,0.68H386.33z
			 M388.9,48.35c-0.12-0.69-0.62-1.1-1.26-1.1c-0.61,0-1.14,0.38-1.31,1.1H388.9z"/>
		<path class="st2" d="M391.91,45.88h1.94v0.86l0.03,0.01c0.44-0.62,1.07-0.95,1.86-0.95c0.13,0,0.27,0.01,0.42,0.05v1.86
			c-0.15-0.04-0.35-0.06-0.53-0.06c-0.69,0-1.26,0.21-1.73,0.75v3.88h-1.98V45.88z"/>
		<path class="st2" d="M397.34,50.16c0.88,0.52,1.91,0.74,2.52,0.74c0.55,0,0.87-0.14,0.87-0.49c0-0.49-0.71-0.44-1.68-0.69
			c-1.21-0.3-1.92-0.81-1.92-1.86c0.01-1.35,1.21-2.12,2.8-2.12c0.77,0,1.72,0.16,2.44,0.51v1.7c-0.84-0.48-1.83-0.69-2.4-0.69
			c-0.52,0-0.83,0.16-0.83,0.45c0,0.47,0.69,0.43,1.64,0.66c1.22,0.3,1.96,0.77,1.96,1.87c-0.01,1.4-1.23,2.17-2.87,2.17
			c-0.77,0-1.75-0.16-2.52-0.53V50.16z"/>
		<path class="st2" d="M404.79,42.72c0.62,0,1.14,0.51,1.14,1.13c0,0.62-0.52,1.13-1.14,1.13c-0.62,0-1.14-0.51-1.14-1.13
			C403.65,43.23,404.17,42.72,404.79,42.72 M403.8,45.88h1.98v6.4h-1.98V45.88z"/>
		<path class="st2" d="M411.68,52.07c-0.3,0.19-0.88,0.35-1.44,0.35c-0.65,0-1.26-0.21-1.66-0.64c-0.34-0.36-0.56-0.9-0.56-1.91
			v-2.35h-1.04v-1.64h1.04v-1.67l1.98-0.34v2h1.69v1.64h-1.69v2.15c0,0.62,0.14,1.09,0.74,1.09c0.32,0,0.69-0.13,0.95-0.26V52.07z"
			/>
		<path class="st2" d="M413.44,55.14l1.68-3.56l-2.6-5.7h2.08l0.66,1.59c0.29,0.69,0.56,1.37,0.82,2.03h0.03
			c0.29-0.7,0.57-1.38,0.87-2.07l0.68-1.55h1.96l-4.16,9.26H413.44z"/>
		<polygon class="st2" points="411.51,64.66 415.29,64.66 415.29,64.14 412.07,64.14 412.07,61.46 414.84,61.46 414.84,60.94 
			412.07,60.94 412.07,58.51 415.2,58.51 415.2,57.99 411.51,57.99 		"/>
		<polygon class="st2" points="405.84,64.66 409.71,64.66 409.71,64.14 406.4,64.14 406.4,57.99 405.84,57.99 		"/>
		<polygon class="st2" points="401.18,64.66 401.74,64.66 401.74,58.51 404.03,58.51 404.03,57.99 398.88,57.99 398.88,58.51 
			401.18,58.51 		"/>
		<path class="st2" d="M393.56,64.2c0.54,0.37,1.31,0.56,1.97,0.56c1.26,0,2.11-0.68,2.11-1.85c0-1.28-1.01-1.63-1.95-1.9
			c-0.83-0.23-1.67-0.42-1.67-1.37c0-0.81,0.6-1.23,1.46-1.23c0.6,0,1.32,0.2,1.88,0.61v-0.61c-0.52-0.35-1.24-0.52-1.87-0.52
			c-1.21,0-2.04,0.65-2.04,1.79c0,1.21,0.94,1.56,1.9,1.83c0.87,0.24,1.72,0.45,1.72,1.44c0,0.87-0.65,1.3-1.55,1.3
			c-0.62,0-1.38-0.2-1.97-0.67V64.2z"/>
		<path class="st2" d="M389.53,57.99H389l-2.77,6.67h0.58l0.82-1.99h3.27l0.82,1.99h0.61L389.53,57.99z M387.84,62.15l0.68-1.66
			c0.28-0.67,0.51-1.24,0.74-1.83h0.02c0.24,0.61,0.49,1.23,0.74,1.84l0.67,1.65H387.84z"/>
		<path class="st2" d="M384.93,63.66c-0.53,0.37-1.17,0.58-1.87,0.58c-1.78,0-2.95-1.28-2.95-2.91c0-1.63,1.17-2.91,2.91-2.91
			c0.67,0,1.3,0.2,1.79,0.52v-0.62c-0.52-0.26-1.12-0.43-1.79-0.43c-2.1,0-3.48,1.55-3.48,3.45c0,1.93,1.43,3.43,3.48,3.43
			c0.7,0,1.37-0.17,1.9-0.48V63.66z"/>
		<path class="st2" d="M371.89,64.66h0.6l1.23-3.88c0.15-0.46,0.38-1.21,0.52-1.68h0.02c0.14,0.46,0.37,1.21,0.53,1.7l1.22,3.85
			h0.58l2.09-6.67h-0.57l-1.21,3.87c-0.18,0.56-0.42,1.35-0.59,1.94h-0.02c-0.17-0.57-0.42-1.37-0.61-1.95l-1.21-3.85h-0.42
			l-1.19,3.76c-0.21,0.67-0.47,1.5-0.64,2.05h-0.02c-0.17-0.56-0.42-1.4-0.62-2.03l-1.18-3.78h-0.61L371.89,64.66z"/>
		<polygon class="st2" points="364.57,64.66 368.35,64.66 368.35,64.14 365.13,64.14 365.13,61.46 367.91,61.46 367.91,60.94 
			365.13,60.94 365.13,58.51 368.27,58.51 368.27,57.99 364.57,57.99 		"/>
		<path class="st2" d="M357.69,64.66v-3.75c0-0.67,0-1.35-0.01-2l0.02-0.01c0.43,0.58,0.81,1.11,1.25,1.7l3.05,4.06h0.54v-6.67
			h-0.54v3.75c0,0.67,0,1.35,0.01,2l-0.02,0.01c-0.42-0.58-0.81-1.11-1.25-1.7l-3.05-4.06h-0.53v6.67H357.69z"/>
		<path class="st2" d="M344.93,49.03l0.07-0.13l0.27-0.5l0.27-0.5l0.27-0.5l-0.5-0.27l-0.5-0.27l-0.51-0.27l-0.5-0.27l-0.27,0.51
			l-0.27,0.5l-0.27,0.5l-0.13,0.24c-0.79-0.31-1.62-0.58-2.48-0.8l0.03-0.11l0.14-0.56l0.14-0.55l0.14-0.56l-0.55-0.14l-0.55-0.14
			l-0.55-0.14l-0.55-0.14l-0.14,0.56l-0.14,0.55l-0.14,0.55l-0.05,0.2c-0.87-0.13-1.77-0.22-2.68-0.27v-0.16v-0.57v-0.57v-0.57
			h-0.57h-0.57h-0.57h-0.57v0.57v0.57v0.57v0.16c-0.92,0.04-1.81,0.13-2.68,0.27l-0.05-0.2l-0.14-0.55l-0.14-0.55l-0.14-0.56
			l-0.55,0.14l-0.55,0.14l-0.56,0.14l-0.55,0.14l0.14,0.56l0.14,0.55l0.14,0.56l0.03,0.11c-0.86,0.22-1.69,0.49-2.48,0.8l-0.13-0.24
			l-0.27-0.5l-0.27-0.5l-0.27-0.51l-0.5,0.27l-0.5,0.27l-0.51,0.27l-0.5,0.27l0.27,0.5l0.27,0.5l0.27,0.5l0.07,0.13
			c-0.71,0.39-1.38,0.81-1.99,1.26c0.32,0.8,0.69,1.61,1.14,2.42c3.31,6,7.1,9.02,7.69,9.51c0.59,0.49,1.6,1.33,2.9,2.02
			c0.49,0.25,0.78,0.37,0.86,0.4l0.01,0l0.01,0c0.08-0.03,0.37-0.15,0.86-0.4c1.3-0.7,2.31-1.53,2.9-2.02
			c0.59-0.49,4.38-3.51,7.69-9.51c0.45-0.82,0.82-1.63,1.14-2.43C346.31,49.84,345.64,49.42,344.93,49.03 M339.51,56.5
			c-0.65,0.06-1.38,0.02-1.97,0c-0.29-0.01-0.54-0.02-0.73-0.02c-1.06,0-1.75,0.19-2.05,0.55l-0.44,0.54l-0.44-0.54
			c-0.3-0.36-0.99-0.55-2.05-0.55c-0.18,0-0.44,0.01-0.73,0.02c-0.59,0.03-1.32,0.06-1.96,0l-0.55-0.05l0.25-6.33l1.14-0.92
			l0.28,0.08c0.36,0.1,0.58,0.07,0.94,0.03c0.22-0.03,0.48-0.06,0.81-0.06c0.81-0.01,1.52,0.08,2.31,0.48
			c0.7-0.36,1.39-0.51,2.32-0.5c0.34,0,0.6,0.04,0.83,0.07c0.35,0.05,0.56,0.08,0.92-0.02l0.28-0.08l1.14,0.92l0.25,6.33
			L339.51,56.5z"/>
		<path class="st2" d="M339.24,50.41l-0.71-0.57c-0.74,0.2-1.08-0.02-1.9-0.03c-0.9-0.01-1.56,0.13-2.31,0.58
			c-0.75-0.45-1.4-0.57-2.31-0.56c-0.83,0.01-1.17,0.21-1.9,0.01l-0.71,0.57l-0.22,5.52c0.92,0.08,2.05-0.03,2.65-0.03
			c0.61,0,1.9,0.04,2.49,0.76c0.59-0.72,1.88-0.76,2.49-0.76c0.61,0,1.73,0.11,2.65,0.03L339.24,50.41z M334.03,55.37
			c-1.05-0.54-2.36-0.19-3.43-0.47l0.04-1.79c0,0,0.05-2.1,0.06-2.58l0.08,0.01c0.23,0.01,0.44-0.03,0.67-0.07
			c0.48-0.07,1.21-0.12,1.6-0.03c0.5,0.12,0.81,0.28,0.98,0.4V55.37z M334.61,55.37v-4.53c0.17-0.12,0.48-0.28,0.98-0.4
			c0.39-0.09,1.13-0.04,1.6,0.03c0.22,0.03,0.43,0.08,0.67,0.07l0.08-0.01c0.01,0.48,0.06,2.58,0.06,2.58l0.05,1.79
			C336.96,55.18,335.66,54.83,334.61,55.37"/>
		<polygon class="st2" points="330.61,38.39 330.61,38.96 331.18,38.96 331.18,38.39 331.18,37.82 330.61,37.82 		"/>
		<polygon class="st2" points="340.89,35.53 340.89,36.1 341.46,36.1 341.46,35.53 341.46,34.96 340.89,34.96 		"/>
		<polygon class="st2" points="327.18,35.53 327.18,36.1 327.75,36.1 327.75,35.53 327.75,34.96 327.18,34.96 		"/>
		<polygon class="st2" points="323.75,38.39 323.75,38.96 324.32,38.96 324.32,38.39 324.32,37.82 323.75,37.82 		"/>
		<polygon class="st2" points="337.46,38.39 337.46,38.96 338.03,38.96 338.03,38.39 338.03,37.82 337.46,37.82 		"/>
		<path class="st2" d="M320,29.82v11.86c0,2.53,0.56,5.38,1.34,7.64l0.16,0.44c0.45-0.33,0.93-0.65,1.44-0.94l-0.35-0.66l-0.54-1.01
			l0.84-0.45l0.67-0.36l0.75-0.4l0.26-0.14l0.5-0.27l0.54,1.01l0.35,0.65l0.08,0.16c0.49-0.18,1-0.35,1.52-0.49l-0.17-0.68
			l-0.14-0.55l-0.14-0.56l1.11-0.28l0.55-0.14l0.55-0.14l1.11-0.28l0.14,0.56h0l0.14,0.55l0.2,0.81c0.55-0.07,1.11-0.13,1.68-0.17
			v-0.19v-0.57v-0.57V44.1h0.57h2.29h0.57v0.57v0.57v0.57V46c0.57,0.04,1.13,0.1,1.68,0.17l0.2-0.81l0.14-0.55l0.14-0.56l0.55,0.14
			l0.55,0.14l0.55,0.14l0.55,0.14l1.11,0.28l-0.14,0.56l-0.14,0.55l-0.17,0.68c0.52,0.15,1.02,0.31,1.52,0.5l0.08-0.16l0.35-0.65
			l0.54-1.01l0.5,0.27c0.59,0.31,1.17,0.62,1.76,0.94l0.76,0.4l-0.54,1.01l-0.35,0.66c0.5,0.29,0.98,0.6,1.43,0.93l0.17-0.44
			c0.78-2.27,1.34-5.12,1.34-7.66V29.82H320z M326.32,33.25v-0.57h0.29v0.57h0.57v-0.57h0.57v0.57h0.57v-0.57h0.29v0.57v0.57h-0.29
			h-0.57h-0.57h-0.57h-0.29V33.25z M328.32,34.39v0.57v0.57v0.57v0.57h-0.57h-0.57h-0.57V36.1v-0.57v-0.57v-0.57h0.57h0.57H328.32z
			 M325.47,37.82h0.57v-0.57h0.57v0.57h0.57v-0.57h0.57v0.57h0.57v-0.57h0.57v0.57h0.57v0.57h-0.57h-2.86h-0.57V37.82z
			 M325.18,41.82v0.57h-0.29h-0.57h-0.57h-0.57h-0.29v-0.57v-0.57h0.29h0.57h0.57h0.57h0.29V41.82z M324.9,40.67h-0.57h-0.57h-0.57
			h-0.29l0.29-0.57v-0.57v-0.57v-0.57v-0.57v-0.57h0.57h0.57h0.57v0.57v0.57v0.57v0.57v0.57l0.29,0.57H324.9z M325.18,36.1v0.57
			h-0.29h-0.57h-0.57h-0.57h-0.29V36.1v-0.57h0.29v0.57h0.57v-0.57h0.57v0.57h0.57v-0.57h0.29V36.1z M329.18,40.67v0.57v0.57v0.57
			h-0.57v-0.57v-0.57v-0.57l-1.14-1.14l-1.14,1.14v0.57v0.57v0.57h-0.57v-0.57v-0.57v-0.57l-0.28-0.57v-0.57v-0.57h0.28h3.43h0.29
			v0.57v0.57L329.18,40.67z M332.04,41.82v0.57h-0.29h-0.57h-0.57h-0.57h-0.29v-0.57v-0.57h0.29h0.57h0.57h0.57h0.29V41.82z
			 M331.75,40.67h-0.57h-0.57h-0.57h-0.29l0.29-0.57v-0.57v-0.57v-0.57v-0.57v-0.57h0.57h0.57h0.57v0.57v0.57v0.57v0.57v0.57
			l0.29,0.57H331.75z M332.04,36.1v0.57h-0.29h-0.57h-0.57h-0.57h-0.29V36.1v-0.57h0.29v0.57h0.57v-0.57h0.57v0.57h0.57v-0.57h0.29
			V36.1z M340.03,33.25v-0.57h0.29v0.57h0.57v-0.57h0.57v0.57h0.57v-0.57h0.29v0.57v0.57h-0.29h-0.57h-0.57h-0.57h-0.29V33.25z
			 M342.03,34.39v0.57v0.57v0.57v0.57h-0.57h-0.57h-0.57V36.1v-0.57v-0.57v-0.57h0.57h0.57H342.03z M339.18,37.82h0.57v-0.57h0.57
			v0.57h0.57v-0.57h0.57v0.57h0.57v-0.57h0.57v0.57h0.57v0.57h-0.57h-2.86h-0.57V37.82z M338.89,41.82v0.57h-0.29h-0.57h-0.57h-0.57
			h-0.28v-0.57v-0.57h0.28h0.57h0.57h0.57h0.29V41.82z M338.6,40.67h-0.57h-0.57h-0.57h-0.28l0.28-0.57v-0.57v-0.57v-0.57v-0.57
			v-0.57h0.57h0.57h0.57v0.57v0.57v0.57v0.57v0.57l0.29,0.57H338.6z M338.89,36.1v0.57h-0.29h-0.57h-0.57h-0.57h-0.28V36.1v-0.57
			h0.28v0.57h0.57v-0.57h0.57v0.57h0.57v-0.57h0.29V36.1z M342.89,40.67v0.57v0.57v0.57h-0.57v-0.57v-0.57v-0.57l-1.14-1.14
			l-1.14,1.14v0.57v0.57v0.57h-0.57v-0.57v-0.57v-0.57l-0.29-0.57v-0.57v-0.57h0.29h3.43h0.29v0.57v0.57L342.89,40.67z
			 M345.74,41.82v0.57h-0.29h-0.57h-0.57h-0.57h-0.29v-0.57v-0.57h0.29h0.57h0.57h0.57h0.29V41.82z M345.46,40.67h-0.57h-0.57h-0.57
			h-0.29l0.29-0.57v-0.57v-0.57v-0.57v-0.57v-0.57h0.57h0.57h0.57v0.57v0.57v0.57v0.57v0.57l0.29,0.57H345.46z M345.74,36.1v0.57
			h-0.29h-0.57h-0.57h-0.57h-0.29V36.1v-0.57h0.29v0.57h0.57v-0.57h0.57v0.57h0.57v-0.57h0.29V36.1z"/>
		<polygon class="st2" points="344.32,38.39 344.32,38.96 344.89,38.96 344.89,38.39 344.89,37.82 344.32,37.82 		"/>
	</g>
	<g>
		<g>
			<path class="st3" d="M29.24,22.97c-0.17,0-0.31-0.14-0.31-0.31v-0.7c0-0.17,0.14-0.31,0.31-0.31h3.18c0.17,0,0.31,0.14,0.31,0.31
				v6.02c0,0.09,0.06,0.16,0.16,0.16h1.99c0.17,0,0.31,0.14,0.31,0.31v0.7c0,0.17-0.14,0.31-0.31,0.31h-5.79
				c-0.17,0-0.31-0.14-0.31-0.31v-0.7c0-0.17,0.14-0.31,0.31-0.31h2.05c0.09,0,0.16-0.06,0.16-0.16v-4.85
				c0-0.09-0.06-0.16-0.16-0.16H29.24z M32.77,19.73c0,0.14-0.11,0.25-0.25,0.25h-1.06c-0.14,0-0.25-0.11-0.25-0.25v-1.08
				c0-0.13,0.11-0.25,0.25-0.25h1.06c0.14,0,0.25,0.13,0.25,0.25V19.73z"/>
		</g>
		<g>
			<path class="st3" d="M40.19,21.48c1.64,0,2.97,1.25,2.97,2.97v4.69c0,0.17-0.14,0.31-0.31,0.31h-0.78
				c-0.17,0-0.31-0.14-0.31-0.31v-4.69c0-0.91-0.75-1.56-1.72-1.56c-0.97,0-1.72,0.58-1.72,1.49v4.77c0,0.17-0.14,0.31-0.31,0.31
				h-0.78c-0.17,0-0.31-0.14-0.31-0.31v-7.2c0-0.17,0.14-0.31,0.31-0.31h0.69c0.09,0,0.16,0.05,0.22,0.11
				c0.09,0.11,0.23,0.25,0.39,0.25C38.97,22,39.1,21.48,40.19,21.48z"/>
		</g>
		<g>
			<path class="st3" d="M45.46,26.6h0.78c0.17,0,0.31,0.14,0.31,0.31c0,1.14,0.97,1.36,1.69,1.36c0.84,0,1.67-0.22,1.67-1.16
				c0-0.69-0.77-0.89-1.67-1.08c-1.28-0.27-2.83-0.58-2.83-2.28c0-1.41,1.41-2.27,2.83-2.27c1.41,0,2.79,0.86,2.79,2.35
				c0,0.17-0.14,0.31-0.31,0.31h-0.78c-0.17,0-0.31-0.14-0.31-0.31c0-0.55-0.41-1.02-1.38-1.02c-0.97,0-1.38,0.49-1.38,0.94
				c0,0.56,0.61,0.74,1.38,0.88c1.31,0.23,3.08,0.52,3.08,2.49c0,1.67-1.46,2.5-3.08,2.5c-1.56,0-3.1-0.78-3.1-2.71
				C45.15,26.74,45.29,26.6,45.46,26.6z"/>
		</g>
		<g>
			<path class="st3" d="M56.46,27.11c0,0.56,0.45,1.09,1.1,1.09c0.64,0,1.09-0.53,1.09-1.09c0-0.17,0.14-0.31,0.31-0.31h0.78
				c0.17,0,0.31,0.14,0.31,0.31c0,1.38-1.13,2.5-2.5,2.5c-1.38,0-2.5-1.13-2.5-2.5v-3.83c0-0.09-0.06-0.16-0.16-0.16h-1.56
				c-0.17,0-0.31-0.14-0.31-0.31v-0.78c0-0.17,0.14-0.31,0.31-0.31h1.56c0.09,0,0.16-0.06,0.16-0.16v-2.43
				c0-0.17,0.14-0.31,0.31-0.31h0.78c0.17,0,0.31,0.14,0.31,0.31v2.43c0,0.09,0.06,0.16,0.16,0.16h2.5c0.17,0,0.31,0.14,0.31,0.31
				v0.78c0,0.17-0.14,0.31-0.31,0.31h-2.5c-0.09,0-0.16,0.06-0.16,0.16V27.11z"/>
		</g>
		<g>
			<path class="st3" d="M62.41,22.97c-0.17,0-0.31-0.14-0.31-0.31v-0.7c0-0.17,0.14-0.31,0.31-0.31h3.18c0.17,0,0.31,0.14,0.31,0.31
				v6.02c0,0.09,0.06,0.16,0.16,0.16h1.99c0.17,0,0.31,0.14,0.31,0.31v0.7c0,0.17-0.14,0.31-0.31,0.31h-5.79
				c-0.17,0-0.31-0.14-0.31-0.31v-0.7c0-0.17,0.14-0.31,0.31-0.31h2.05c0.09,0,0.16-0.06,0.16-0.16v-4.85
				c0-0.09-0.06-0.16-0.16-0.16H62.41z M65.95,19.73c0,0.14-0.11,0.25-0.25,0.25h-1.06c-0.14,0-0.25-0.11-0.25-0.25v-1.08
				c0-0.13,0.11-0.25,0.25-0.25h1.06c0.14,0,0.25,0.13,0.25,0.25V19.73z"/>
		</g>
		<g>
			<path class="st3" d="M73.05,27.11c0,0.56,0.45,1.09,1.1,1.09c0.64,0,1.1-0.53,1.1-1.09c0-0.17,0.14-0.31,0.31-0.31h0.78
				c0.17,0,0.31,0.14,0.31,0.31c0,1.38-1.13,2.5-2.5,2.5c-1.38,0-2.5-1.13-2.5-2.5v-3.83c0-0.09-0.06-0.16-0.16-0.16h-1.56
				c-0.17,0-0.31-0.14-0.31-0.31v-0.78c0-0.17,0.14-0.31,0.31-0.31h1.56c0.09,0,0.16-0.06,0.16-0.16v-2.43
				c0-0.17,0.14-0.31,0.31-0.31h0.78c0.17,0,0.31,0.14,0.31,0.31v2.43c0,0.09,0.06,0.16,0.16,0.16h2.5c0.17,0,0.31,0.14,0.31,0.31
				v0.78c0,0.17-0.14,0.31-0.31,0.31h-2.5c-0.09,0-0.16,0.06-0.16,0.16V27.11z"/>
		</g>
		<g>
			<path class="st3" d="M81.27,29.62c-1.77,0-2.97-1.25-2.97-2.97v-4.69c0-0.17,0.14-0.31,0.31-0.31h0.78
				c0.17,0,0.31,0.14,0.31,0.31v4.69c0,0.91,0.64,1.56,1.72,1.56c0.97,0,1.72-0.58,1.72-1.49v-4.77c0-0.17,0.14-0.31,0.31-0.31h0.78
				c0.17,0,0.31,0.14,0.31,0.31v7.2c0,0.17-0.14,0.31-0.31,0.31h-0.69c-0.09,0-0.16-0.05-0.22-0.11c-0.09-0.11-0.23-0.25-0.39-0.25
				C82.49,29.1,82.42,29.62,81.27,29.62z"/>
		</g>
		<g>
			<path class="st3" d="M89.64,27.11c0,0.56,0.45,1.09,1.1,1.09c0.64,0,1.1-0.53,1.1-1.09c0-0.17,0.14-0.31,0.31-0.31h0.78
				c0.17,0,0.31,0.14,0.31,0.31c0,1.38-1.13,2.5-2.5,2.5c-1.38,0-2.5-1.13-2.5-2.5v-3.83c0-0.09-0.06-0.16-0.16-0.16h-1.56
				c-0.17,0-0.31-0.14-0.31-0.31v-0.78c0-0.17,0.14-0.31,0.31-0.31h1.56c0.09,0,0.16-0.06,0.16-0.16v-2.43
				c0-0.17,0.14-0.31,0.31-0.31h0.78c0.17,0,0.31,0.14,0.31,0.31v2.43c0,0.09,0.06,0.16,0.16,0.16h2.5c0.17,0,0.31,0.14,0.31,0.31
				v0.78c0,0.17-0.14,0.31-0.31,0.31h-2.5c-0.09,0-0.16,0.06-0.16,0.16V27.11z"/>
		</g>
		<g>
			<path class="st3" d="M98.07,28.21c0.81,0,1.42-0.41,1.61-0.99c0.06-0.2,0.22-0.27,0.36-0.27h0.8c0.16,0,0.3,0.09,0.27,0.31
				c-0.19,1.36-1.41,2.35-3.04,2.35c-1.88,0-3.08-1.33-3.21-2.97c-0.05-0.63-0.05-1.56,0-2.19c0.13-1.64,1.33-2.97,3.21-2.97
				c1.89,0,3.13,1.17,3.13,3.13v1.08c0,0.17-0.14,0.31-0.31,0.31h-4.48c-0.09,0-0.16,0.06-0.16,0.16
				C96.26,27.58,96.99,28.21,98.07,28.21z M96.44,24.75h3.25c0.09,0,0.16-0.06,0.16-0.16c0-1.08-0.8-1.71-1.77-1.71
				c-1.08,0-1.8,0.75-1.8,1.71C96.29,24.69,96.35,24.75,96.44,24.75z"/>
		</g>
		<g>
			<path class="st3" d="M114.36,24.45c0.05,0.63,0.05,1.56,0,2.19c-0.13,1.64-1.33,2.97-3.21,2.97c-1.88,0-3.08-1.33-3.21-2.97
				c-0.05-0.63-0.05-1.56,0-2.19c0.13-1.64,1.33-2.97,3.21-2.97C113.03,21.48,114.23,22.81,114.36,24.45z M112.95,26.64
				c0.05-0.64,0.05-1.55,0-2.19c-0.06-0.83-0.72-1.56-1.8-1.56s-1.74,0.74-1.8,1.56c-0.05,0.64-0.05,1.55,0,2.19
				c0.06,0.83,0.72,1.56,1.8,1.56S112.89,27.47,112.95,26.64z"/>
		</g>
		<g>
			<path class="st3" d="M116.33,23.12c-0.17,0-0.31-0.14-0.31-0.31v-0.78c0-0.17,0.14-0.31,0.31-0.31h1.96
				c0.09,0,0.16-0.06,0.16-0.16v-0.23c0-1.64,1.25-2.93,2.89-2.93h0.94c0.17,0,0.31,0.14,0.31,0.31v0.74c0,0.17-0.14,0.31-0.31,0.31
				h-0.94c-0.83,0-1.49,0.78-1.49,1.56v0.23c0,0.09,0.06,0.16,0.16,0.16h2.53c0.17,0,0.31,0.14,0.31,0.31v0.78
				c0,0.17-0.14,0.31-0.31,0.31h-2.53c-0.09,0-0.16,0.06-0.16,0.16v5.87c0,0.17-0.14,0.31-0.31,0.31h-0.78
				c-0.17,0-0.31-0.14-0.31-0.31v-5.87c0-0.09-0.06-0.16-0.16-0.16H116.33z"/>
		</g>
		<g>
			<path class="st4" d="M42.9,70.37l0,1.61c-9.16-0.01-16.79-7.08-17.72-16.01c-0.01-0.14-0.03-0.29-0.04-0.43c0-0.02,0-0.03,0-0.04
				c-0.01-0.15-0.02-0.29-0.03-0.44v-0.01l0-0.91v-0.66c1.15,0,2.27,0.11,3.36,0.33c1.62,0.32,3.17,0.86,4.6,1.59
				c0.54,4.38,3.93,7.89,8.26,8.6C42.23,65.96,42.78,68.11,42.9,70.37z"/>
		</g>
		<g>
			<path class="st5" d="M51.54,59.21l6.82,4c-3.1,5.28-8.84,8.82-15.41,8.82c-9.4,0-17.12-7.27-17.82-16.49
				c0.73,9.13,8.45,16.43,17.76,16.44l0-1.61c-0.12-2.26-0.67-4.41-1.57-6.38c0.53,0.09,1.07,0.13,1.62,0.13
				C46.61,64.12,49.81,62.15,51.54,59.21z"/>
		</g>
		<g>
			<path class="st6" d="M41.33,63.99c-4.33-0.71-7.72-4.21-8.26-8.6C36.7,57.23,39.64,60.28,41.33,63.99z"/>
		</g>
		<g>
			<path class="st7" d="M119.59,36.97h-15.35v7.61h15.35c5.29,0,9.58,4.29,9.58,9.58c0,5.29-4.29,9.58-9.58,9.58v7.61
				c9.49,0,17.19-7.69,17.19-17.19C136.78,44.66,129.09,36.97,119.59,36.97z"/>
		</g>
		<g>
			<path class="st8" d="M232.93,51.75v20.28h-8.61v-1.25c3.55-1.49,6.61-4.09,8.61-7.5l-0.24-0.14c-1.95,3.32-4.92,5.87-8.37,7.33
				v-1.03c3.26-1.38,6.06-3.76,7.91-6.84l-0.24-0.15c-1.8,3-4.51,5.31-7.67,6.68v-0.96c2.81-1.32,5.22-3.44,6.85-6.15l-0.24-0.14
				c-1.57,2.62-3.89,4.68-6.61,5.98v-0.85c2.4-1.24,4.46-3.13,5.87-5.51l-0.24-0.15c-1.36,2.29-3.33,4.12-5.63,5.33v-0.94
				c1.98-1.14,3.67-2.78,4.86-4.79l-0.24-0.14c-1.14,1.92-2.75,3.49-4.62,4.61v-1.11c1.51-1.01,2.8-2.35,3.75-3.95l-0.24-0.14
				c-0.89,1.51-2.1,2.78-3.51,3.75v-1.09c1.06-0.84,1.98-1.88,2.69-3.08l-0.24-0.14c-0.65,1.11-1.48,2.07-2.45,2.86v-1.03
				c0.69-0.65,1.3-1.4,1.79-2.24l-0.24-0.14c-0.43,0.73-0.95,1.4-1.55,1.99v-1.69h-7.72v-7.68H232.93z"/>
		</g>
		<g>
			<g>
				<path class="st8" d="M226.1,59.28c-0.49,0.84-1.1,1.59-1.79,2.24v-0.39c0.59-0.59,1.12-1.26,1.55-1.99L226.1,59.28z"/>
			</g>
		</g>
		<g>
			<g>
				<path class="st8" d="M232.92,63.28c-2,3.41-5.06,6.01-8.61,7.5v-0.3c3.45-1.47,6.42-4.01,8.37-7.33L232.92,63.28z"/>
			</g>
		</g>
		<g>
			<g>
				<path class="st8" d="M227,59.82c-0.71,1.2-1.62,2.24-2.69,3.08v-0.36c0.97-0.79,1.8-1.76,2.45-2.86L227,59.82z"/>
			</g>
		</g>
		<g>
			<g>
				<path class="st8" d="M228.06,60.39c-0.95,1.6-2.24,2.94-3.75,3.95V64c1.41-0.97,2.62-2.24,3.51-3.75L228.06,60.39z"/>
			</g>
		</g>
		<g>
			<g>
				<path class="st8" d="M229.18,60.98c-1.19,2.01-2.88,3.64-4.86,4.79v-0.32c1.88-1.12,3.48-2.69,4.62-4.61L229.18,60.98z"/>
			</g>
		</g>
		<g>
			<g>
				<path class="st8" d="M230.18,61.52c-1.41,2.37-3.47,4.26-5.87,5.51v-0.32c2.3-1.22,4.27-3.05,5.63-5.33L230.18,61.52z"/>
			</g>
		</g>
		<g>
			<g>
				<path class="st8" d="M231.16,62.04c-1.62,2.71-4.03,4.83-6.85,6.15v-0.31c2.71-1.3,5.03-3.36,6.61-5.98L231.16,62.04z"/>
			</g>
		</g>
		<g>
			<g>
				<path class="st8" d="M232.22,62.6c-1.85,3.08-4.65,5.46-7.91,6.84v-0.3c3.15-1.37,5.87-3.69,7.67-6.68L232.22,62.6z"/>
			</g>
		</g>
		<g>
			<polygon class="st8" points="143.59,54.18 143.59,62.72 152.13,62.72 152.13,62.72 143.59,54.18 			"/>
		</g>
		<g>
			<polygon class="st9" points="143.59,54.18 152.13,62.72 152.13,54.18 			"/>
		</g>
		<g>
			<path class="st9" d="M143.59,37.05L143.59,37.05c0,4.72,3.82,8.54,8.54,8.54l0,0v0L143.59,37.05L143.59,37.05z"/>
		</g>
		<g>
			<polygon class="st8" points="143.59,37.05 152.13,45.59 152.13,37.05 			"/>
		</g>
		<g>
			<polygon class="st5" points="143.59,45.61 143.59,54.15 152.13,45.61 			"/>
		</g>
		<g>
			<polygon class="st8" points="152.13,45.61 143.59,54.15 152.13,54.15 			"/>
		</g>
		<g>
			<polygon class="st5" points="152.13,71.28 152.13,62.74 143.59,71.28 			"/>
		</g>
		<g>
			<polygon class="st9" points="143.59,62.74 143.59,71.28 143.59,71.28 152.13,62.74 152.13,62.74 			"/>
		</g>
		<g>
			<rect x="184.17" y="36.98" class="st10" width="8.54" height="34.37"/>
		</g>
		<g>
			<g>
				<path class="st8" d="M97.79,53.85c-0.18-9.68-8.09-17.47-17.81-17.47c-9.84,0-17.81,7.97-17.81,17.81
					c0,9.84,7.97,17.81,17.81,17.81c9.77,0,17.7-7.86,17.81-17.6c0-0.09,0-0.19,0-0.28C97.79,54.04,97.79,53.94,97.79,53.85z
					 M69.97,54.19c0-5.53,4.48-10.01,10.01-10.01c5.53,0,10.01,4.48,10.01,10.01c0,0.46-0.03,0.92-0.09,1.36
					c-0.6,4.43-4.1,7.93-8.52,8.55c-0.46,0.06-0.92,0.1-1.4,0.1C74.46,64.2,69.97,59.72,69.97,54.19z"/>
			</g>
		</g>
		<g>
			<g>
				<path class="st11" d="M89.9,55.56c-0.6,4.43-4.1,7.93-8.52,8.55C83.14,60.36,86.16,57.33,89.9,55.56z"/>
			</g>
		</g>
		<g>
			<g>
				<path class="st12" d="M97.79,54.13c0,0.09,0,0.19,0,0.28c-0.15,9.62-7.91,17.38-17.53,17.53c-0.09,0-0.19,0-0.28,0
					c-0.09,0-0.19,0-0.28,0c0-0.09,0-0.19,0-0.28c0-1.08,0.09-2.14,0.28-3.17c0.28-1.54,0.75-3.02,1.4-4.39
					c4.42-0.62,7.92-4.12,8.52-8.55c1.39-0.66,2.88-1.14,4.45-1.42c1.03-0.19,2.09-0.28,3.17-0.28c0.09,0,0.19,0,0.28,0
					C97.79,53.94,97.79,54.04,97.79,54.13z"/>
			</g>
		</g>
		<g>
			<g>
				<circle class="st8" cx="170.42" cy="38.88" r="0.82"/>
			</g>
			<g>
				<circle class="st8" cx="172.07" cy="41.32" r="0.82"/>
			</g>
			<g>
				<circle class="st8" cx="173.73" cy="43.75" r="0.82"/>
			</g>
			<g>
				<circle class="st8" cx="175.38" cy="46.18" r="0.82"/>
			</g>
			<g>
				<circle class="st8" cx="177.03" cy="48.62" r="0.82"/>
			</g>
			<g>
				<circle class="st8" cx="178.68" cy="51.05" r="0.82"/>
			</g>
			<g>
				<circle class="st8" cx="180.34" cy="53.48" r="0.82"/>
			</g>
			<g>
				<circle class="st8" cx="181.99" cy="55.92" r="0.82"/>
			</g>
			<g>
				<circle class="st8" cx="183.64" cy="58.35" r="0.82"/>
			</g>
			<g>
				<circle class="st8" cx="185.3" cy="60.78" r="0.82"/>
			</g>
			<g>
				<circle class="st8" cx="186.95" cy="63.22" r="0.82"/>
			</g>
			<g>
				<circle class="st8" cx="188.6" cy="65.65" r="0.82"/>
			</g>
			<g>
				<circle class="st8" cx="190.25" cy="68.08" r="0.82"/>
			</g>
			<g>
				<circle class="st8" cx="191.91" cy="70.52" r="0.82"/>
			</g>
		</g>
		<g>
			<circle class="st8" cx="170.42" cy="43.76" r="0.82"/>
		</g>
		<g>
			<circle class="st8" cx="172.07" cy="46.19" r="0.82"/>
		</g>
		<g>
			<circle class="st8" cx="173.73" cy="48.63" r="0.82"/>
		</g>
		<g>
			<circle class="st8" cx="175.38" cy="51.06" r="0.82"/>
		</g>
		<g>
			<circle class="st8" cx="177.03" cy="53.49" r="0.82"/>
		</g>
		<g>
			<circle class="st8" cx="178.68" cy="55.93" r="0.82"/>
		</g>
		<g>
			<circle class="st8" cx="180.34" cy="58.36" r="0.82"/>
		</g>
		<g>
			<circle class="st8" cx="181.99" cy="60.79" r="0.82"/>
		</g>
		<g>
			<circle class="st8" cx="183.64" cy="63.23" r="0.82"/>
		</g>
		<g>
			<circle class="st8" cx="185.3" cy="65.66" r="0.82"/>
		</g>
		<g>
			<circle class="st8" cx="186.95" cy="68.09" r="0.82"/>
		</g>
		<g>
			<circle class="st8" cx="188.6" cy="70.53" r="0.82"/>
		</g>
		<g>
			<circle class="st8" cx="170.42" cy="48.64" r="0.82"/>
		</g>
		<g>
			<circle class="st8" cx="172.07" cy="51.07" r="0.82"/>
		</g>
		<g>
			<circle class="st8" cx="173.73" cy="53.5" r="0.82"/>
		</g>
		<g>
			<circle class="st8" cx="175.38" cy="55.94" r="0.82"/>
		</g>
		<g>
			<circle class="st8" cx="177.03" cy="58.37" r="0.82"/>
		</g>
		<g>
			<circle class="st8" cx="178.68" cy="60.8" r="0.82"/>
		</g>
		<g>
			<circle class="st8" cx="180.34" cy="63.24" r="0.82"/>
		</g>
		<g>
			<circle class="st8" cx="181.99" cy="65.67" r="0.82"/>
		</g>
		<g>
			<circle class="st8" cx="183.64" cy="68.1" r="0.82"/>
		</g>
		<g>
			<circle class="st8" cx="185.3" cy="70.54" r="0.82"/>
		</g>
		<g>
			<circle class="st8" cx="170.42" cy="53.51" r="0.82"/>
		</g>
		<g>
			<circle class="st8" cx="172.07" cy="55.95" r="0.82"/>
		</g>
		<g>
			<circle class="st8" cx="173.73" cy="58.38" r="0.82"/>
		</g>
		<g>
			<circle class="st8" cx="175.38" cy="60.81" r="0.82"/>
		</g>
		<g>
			<circle class="st8" cx="177.03" cy="63.25" r="0.82"/>
		</g>
		<g>
			<circle class="st8" cx="178.68" cy="65.68" r="0.82"/>
		</g>
		<g>
			<circle class="st8" cx="180.34" cy="68.11" r="0.82"/>
		</g>
		<g>
			<circle class="st8" cx="181.99" cy="70.55" r="0.82"/>
		</g>
		<g>
			<path class="st3" d="M217.37,72.51c-10.12,0-18.35-8.23-18.35-18.35c0-10.12,8.23-18.35,18.35-18.35
				c6.32,0,12.12,3.19,15.51,8.54l-0.57,0.36c-3.26-5.15-8.85-8.22-14.93-8.22c-9.74,0-17.67,7.93-17.67,17.67
				c0,9.74,7.93,17.67,17.67,17.67c6.12,0,11.72-3.1,14.97-8.28l0.58,0.36C229.54,69.3,223.73,72.51,217.37,72.51z"/>
		</g>
		<g>
			<path class="st13" d="M232.93,54.16"/>
		</g>
		<g>
			<path class="st3" d="M217.37,70.05c-8.76,0-15.89-7.13-15.89-15.89c0-8.76,7.13-15.89,15.89-15.89c3.99,0,7.81,1.48,10.74,4.18
				c1.03,0.95,1.93,2.02,2.68,3.2l-0.57,0.36c-0.72-1.13-1.58-2.16-2.57-3.07c-2.81-2.58-6.46-4-10.28-4
				c-8.39,0-15.21,6.82-15.21,15.21s6.82,15.21,15.21,15.21c5.3,0,10.14-2.69,12.94-7.21l0.58,0.36
				C227.97,67.24,222.91,70.05,217.37,70.05z"/>
		</g>
		<g>
			<path class="st13" d="M230.18,54.16"/>
		</g>
		<g>
			<path class="st3" d="M217.37,67.31c-7.25,0-13.14-5.9-13.14-13.14c0-7.25,5.9-13.14,13.14-13.14c3.35,0,6.54,1.26,8.98,3.55
				c0.78,0.73,1.46,1.55,2.04,2.43l-0.57,0.37c-0.55-0.84-1.2-1.62-1.94-2.31c-2.32-2.17-5.34-3.36-8.52-3.36
				c-6.87,0-12.46,5.59-12.46,12.46c0,6.87,5.59,12.46,12.46,12.46c4.31,0,8.26-2.18,10.56-5.84l0.58,0.36
				C226.08,65.01,221.92,67.31,217.37,67.31z"/>
		</g>
		<g>
			<path class="st13" d="M227.72,54.16"/>
		</g>
		<g>
			<path class="st3" d="M217.37,64.84c-5.89,0-10.68-4.79-10.68-10.68c0-5.89,4.79-10.68,10.68-10.68c2.69,0,5.26,1,7.24,2.83
				c0.63,0.58,1.19,1.23,1.66,1.94l-0.57,0.38c-0.44-0.66-0.97-1.28-1.55-1.82c-1.85-1.71-4.26-2.65-6.78-2.65
				c-5.52,0-10,4.49-10,10c0,5.52,4.49,10,10,10c3.46,0,6.62-1.75,8.47-4.68l0.57,0.36C224.45,62.98,221.07,64.84,217.37,64.84z"/>
		</g>
		<g>
			<g>
				<polygon class="st3" points="158.84,38.73 158.84,42.15 161.85,40.44 				"/>
			</g>
			<g>
				<polygon class="st3" points="158.84,36.98 158.84,38.69 161.85,36.98 				"/>
			</g>
			<g>
				<polygon class="st3" points="164.87,36.98 164.87,38.69 167.89,36.98 				"/>
			</g>
			<g>
				<polygon class="st3" points="158.84,42.15 158.84,45.58 161.85,43.87 				"/>
			</g>
			<g>
				<polygon class="st3" points="161.85,47.29 158.84,45.58 158.84,49.01 158.84,49.01 				"/>
			</g>
			<g>
				<polygon class="st3" points="158.84,49.01 158.84,49.01 158.84,49.01 158.84,49.01 158.84,50.71 161.83,50.71 				"/>
			</g>
			<g>
				<polygon class="st3" points="158.84,49.01 158.84,49.01 158.84,49.01 				"/>
			</g>
			<g>
				<polygon class="st3" points="161.83,50.71 158.84,50.71 158.84,52.43 161.85,50.72 				"/>
			</g>
			<g>
				<polygon class="st3" points="158.84,52.43 158.84,55.86 161.85,54.15 				"/>
			</g>
			<g>
				<polygon class="st3" points="158.84,55.86 158.84,59.29 161.85,57.57 				"/>
			</g>
			<g>
				<polygon class="st3" points="158.84,59.29 158.84,62.72 161.85,61 				"/>
			</g>
			<g>
				<polygon class="st3" points="158.84,62.72 158.84,66.14 161.85,64.43 				"/>
			</g>
			<g>
				<polygon class="st3" points="158.84,66.14 158.84,69.57 161.85,67.86 				"/>
			</g>
			<g>
				<polygon class="st3" points="161.85,71.28 158.84,69.57 158.84,71.34 161.75,71.34 				"/>
			</g>
			<g>
				<polygon class="st3" points="161.85,40.44 161.85,43.87 164.87,42.15 				"/>
			</g>
			<g>
				<polygon class="st3" points="161.85,37.01 161.85,40.44 164.87,38.73 				"/>
			</g>
			<g>
				<polygon class="st3" points="161.85,43.87 161.85,47.29 164.87,45.58 				"/>
			</g>
			<g>
				<polygon class="st3" points="164.87,49.01 161.85,47.29 161.85,50.72 161.85,50.72 				"/>
			</g>
			<g>
				<polygon class="st3" points="161.85,50.72 161.85,50.72 161.85,50.72 161.85,50.72 161.85,52.42 164.84,52.42 				"/>
			</g>
			<g>
				<polygon class="st3" points="161.85,50.72 161.85,50.72 161.85,50.72 				"/>
			</g>
			<g>
				<polygon class="st3" points="164.87,52.44 164.84,52.42 161.85,52.42 161.85,54.15 161.85,54.15 				"/>
			</g>
			<g>
				<polygon class="st3" points="161.85,54.15 161.85,57.57 164.87,55.86 				"/>
			</g>
			<g>
				<polygon class="st3" points="161.85,57.57 161.85,61 164.87,59.29 				"/>
			</g>
			<g>
				<polygon class="st3" points="161.85,61 161.85,64.43 164.87,62.72 				"/>
			</g>
			<g>
				<polygon class="st3" points="161.85,64.43 161.85,67.86 164.87,66.14 				"/>
			</g>
			<g>
				<polygon class="st3" points="161.85,67.86 161.85,71.28 164.87,69.57 				"/>
			</g>
			<g>
				<polygon class="st3" points="161.85,71.28 161.85,71.34 161.96,71.34 				"/>
			</g>
			<g>
				<polygon class="st3" points="164.87,42.15 164.87,45.58 167.89,43.87 				"/>
			</g>
			<g>
				<polygon class="st3" points="164.87,38.73 164.87,42.15 167.89,40.44 				"/>
			</g>
			<g>
				<polygon class="st3" points="164.87,45.58 164.87,49.01 167.89,47.29 				"/>
			</g>
			<g>
				<polygon class="st3" points="167.89,50.72 164.87,49.01 164.87,52.43 164.87,52.43 				"/>
			</g>
			<g>
				<polygon class="st3" points="164.87,52.43 164.87,52.43 164.87,52.43 164.87,52.43 164.87,54.13 167.86,54.13 				"/>
			</g>
			<g>
				<polygon class="st3" points="164.87,52.43 164.87,52.43 164.87,52.43 				"/>
			</g>
			<g>
				<polygon class="st3" points="167.89,54.15 167.86,54.13 164.87,54.13 164.87,55.86 164.87,55.86 				"/>
			</g>
			<g>
				<polygon class="st3" points="164.87,55.86 164.87,59.29 167.89,57.57 				"/>
			</g>
			<g>
				<polygon class="st3" points="164.87,59.29 164.87,62.72 167.89,61 				"/>
			</g>
			<g>
				<polygon class="st3" points="164.87,62.72 164.87,66.14 167.89,64.43 				"/>
			</g>
			<g>
				<polygon class="st3" points="164.87,66.14 164.87,69.57 167.89,67.86 				"/>
			</g>
			<g>
				<polygon class="st3" points="167.89,71.28 164.87,69.57 164.87,71.34 167.79,71.34 				"/>
			</g>
		</g>
		<g>
			<rect x="104.22" y="36.95" class="st14" width="1.9" height="1.9"/>
		</g>
		<g>
			<rect x="107.98" y="36.95" class="st14" width="1.9" height="1.9"/>
		</g>
		<g>
			<rect x="106.12" y="38.85" class="st14" width="1.9" height="1.9"/>
		</g>
		<g>
			<rect x="109.88" y="38.85" class="st14" width="1.9" height="1.9"/>
		</g>
		<g>
			<rect x="104.22" y="40.74" class="st14" width="1.9" height="1.9"/>
		</g>
		<g>
			<rect x="107.98" y="40.74" class="st14" width="1.9" height="1.9"/>
		</g>
		<g>
			<rect x="106.12" y="42.64" class="st14" width="1.9" height="1.9"/>
		</g>
		<g>
			<rect x="109.88" y="42.64" class="st14" width="1.9" height="1.9"/>
		</g>
		<g>
			<rect x="104.22" y="44.54" class="st15" width="1.9" height="1.91"/>
		</g>
		<g>
			<rect x="107.98" y="44.54" class="st15" width="1.9" height="1.91"/>
		</g>
		<g>
			<rect x="106.12" y="46.46" class="st15" width="1.9" height="1.91"/>
		</g>
		<g>
			<rect x="109.88" y="46.46" class="st15" width="1.9" height="1.91"/>
		</g>
		<g>
			<rect x="104.22" y="48.37" class="st15" width="1.9" height="1.91"/>
		</g>
		<g>
			<rect x="107.98" y="48.37" class="st15" width="1.9" height="1.91"/>
		</g>
		<g>
			<rect x="106.12" y="50.28" class="st15" width="1.9" height="1.91"/>
		</g>
		<g>
			<rect x="109.88" y="50.28" class="st15" width="1.9" height="1.91"/>
		</g>
		<g>
			<rect x="104.22" y="52.2" class="st15" width="1.9" height="1.91"/>
		</g>
		<g>
			<rect x="107.98" y="52.2" class="st15" width="1.9" height="1.91"/>
		</g>
		<g>
			<rect x="106.12" y="54.11" class="st15" width="1.9" height="1.91"/>
		</g>
		<g>
			<rect x="109.88" y="54.11" class="st15" width="1.9" height="1.91"/>
		</g>
		<g>
			<rect x="104.22" y="56.02" class="st15" width="1.9" height="1.91"/>
		</g>
		<g>
			<rect x="107.98" y="56.02" class="st15" width="1.9" height="1.91"/>
		</g>
		<g>
			<rect x="106.12" y="57.94" class="st15" width="1.9" height="1.91"/>
		</g>
		<g>
			<rect x="109.88" y="57.94" class="st15" width="1.9" height="1.91"/>
		</g>
		<g>
			<rect x="104.22" y="59.85" class="st15" width="1.9" height="1.91"/>
		</g>
		<g>
			<rect x="107.98" y="59.85" class="st15" width="1.9" height="1.91"/>
		</g>
		<g>
			<rect x="106.12" y="61.76" class="st15" width="1.9" height="1.91"/>
		</g>
		<g>
			<rect x="109.88" y="61.76" class="st15" width="1.9" height="1.91"/>
		</g>
		<g>
			<rect x="104.22" y="63.73" class="st15" width="1.9" height="1.85"/>
		</g>
		<g>
			<rect x="107.98" y="63.73" class="st15" width="1.9" height="1.85"/>
		</g>
		<g>
			<rect x="106.12" y="65.58" class="st15" width="1.9" height="1.85"/>
		</g>
		<g>
			<rect x="109.88" y="65.58" class="st15" width="1.9" height="1.85"/>
		</g>
		<g>
			<rect x="106.12" y="69.27" class="st15" width="1.9" height="1.85"/>
		</g>
		<g>
			<rect x="109.88" y="69.27" class="st15" width="1.9" height="1.85"/>
		</g>
		<g>
			<rect x="104.22" y="67.44" class="st15" width="1.9" height="1.85"/>
		</g>
		<g>
			<rect x="107.98" y="67.44" class="st15" width="1.9" height="1.85"/>
		</g>
		<g>
			<rect x="111.78" y="36.95" class="st14" width="1.9" height="1.9"/>
		</g>
		<g>
			<rect x="111.78" y="40.74" class="st14" width="1.9" height="1.9"/>
		</g>
		<g>
			<rect x="111.78" y="44.54" class="st15" width="1.9" height="1.91"/>
		</g>
		<g>
			<rect x="111.78" y="48.37" class="st15" width="1.9" height="1.91"/>
		</g>
		<g>
			<rect x="111.78" y="52.2" class="st15" width="1.9" height="1.91"/>
		</g>
		<g>
			<rect x="111.78" y="56.02" class="st15" width="1.9" height="1.91"/>
		</g>
		<g>
			<rect x="111.78" y="59.85" class="st15" width="1.9" height="1.91"/>
		</g>
		<g>
			<rect x="111.78" y="63.73" class="st15" width="1.9" height="1.85"/>
		</g>
		<g>
			<rect x="111.78" y="67.44" class="st15" width="1.9" height="1.85"/>
		</g>
		<g>
			<rect x="105.86" y="63.76" class="st11" width="0.28" height="7.36"/>
		</g>
		<g>
			<rect x="107.78" y="63.76" class="st11" width="0.28" height="7.36"/>
		</g>
		<g>
			<rect x="109.71" y="63.76" class="st11" width="0.28" height="7.36"/>
		</g>
		<g>
			<rect x="111.63" y="63.76" class="st11" width="0.28" height="7.36"/>
		</g>
		<g>
			<rect x="113.55" y="63.76" class="st11" width="0.28" height="7.36"/>
		</g>
		<g>
			<rect x="115.47" y="63.76" class="st11" width="0.28" height="7.36"/>
		</g>
		<g>
			<rect x="117.4" y="63.76" class="st11" width="0.28" height="7.36"/>
		</g>
		<g>
			<rect x="104.12" y="69.17" class="st11" width="15.35" height="0.28"/>
		</g>
		<g>
			<rect x="104.12" y="67.34" class="st11" width="15.35" height="0.28"/>
		</g>
		<g>
			<rect x="104.12" y="65.51" class="st11" width="15.35" height="0.28"/>
		</g>
		<g>
			<rect x="103.94" y="63.7" class="st11" width="0.28" height="7.61"/>
		</g>
		<g>
			<rect x="119.32" y="63.7" class="st11" width="0.28" height="7.61"/>
		</g>
		<g>
			<rect x="104.07" y="63.69" class="st11" width="15.38" height="0.28"/>
		</g>
		<g>
			<rect x="104.07" y="71.04" class="st11" width="15.38" height="0.28"/>
		</g>
		<g>
			<defs>
				<path id="SVGID_3_" d="M79.98,36.38c-9.84,0-17.81,7.97-17.81,17.81c0,0.09,0.01,0.18,0.01,0.26c0.49,0.04,0.99,0.07,1.49,0.07
					c2.23,0,4.37-0.4,6.34-1.12c4.47-1.64,8.12-4.97,10.19-9.21c1.14-2.33,1.79-4.93,1.85-7.69C81.37,36.43,80.68,36.38,79.98,36.38
					z"/>
			</defs>
			<clipPath id="SVGID_4_">
				<use xlink:href="#SVGID_3_"  style="overflow:visible;"/>
			</clipPath>
			<g class="st16">
				<g>
					<g>
						<rect x="57.36" y="35.17" class="st17" width="0.28" height="7.36"/>
					</g>
					<g>
						<rect x="59.28" y="35.17" class="st17" width="0.28" height="7.36"/>
					</g>
					<g>
						<rect x="61.2" y="35.17" class="st17" width="0.28" height="7.36"/>
					</g>
					<g>
						<rect x="63.13" y="35.17" class="st17" width="0.28" height="7.36"/>
					</g>
					<g>
						<rect x="65.05" y="35.17" class="st17" width="0.28" height="7.36"/>
					</g>
					<g>
						<rect x="66.97" y="35.17" class="st17" width="0.28" height="7.36"/>
					</g>
					<g>
						<rect x="68.89" y="35.17" class="st17" width="0.28" height="7.36"/>
					</g>
					<g>
						<rect x="55.62" y="40.58" class="st17" width="15.35" height="0.28"/>
					</g>
					<g>
						<rect x="55.62" y="38.75" class="st17" width="15.35" height="0.28"/>
					</g>
					<g>
						<rect x="55.62" y="36.93" class="st17" width="15.35" height="0.28"/>
					</g>
					<g>
						<rect x="55.43" y="35.11" class="st17" width="0.28" height="7.61"/>
					</g>
					<g>
						<rect x="70.82" y="35.11" class="st17" width="0.28" height="7.61"/>
					</g>
					<g>
						<rect x="55.57" y="35.11" class="st17" width="15.38" height="0.28"/>
					</g>
					<g>
						<rect x="55.57" y="42.46" class="st17" width="15.38" height="0.28"/>
					</g>
				</g>
				<g>
					<g>
						<rect x="57.36" y="42.47" class="st17" width="0.28" height="7.36"/>
					</g>
					<g>
						<rect x="59.28" y="42.47" class="st17" width="0.28" height="7.36"/>
					</g>
					<g>
						<rect x="61.2" y="42.47" class="st17" width="0.28" height="7.36"/>
					</g>
					<g>
						<rect x="63.13" y="42.47" class="st17" width="0.28" height="7.36"/>
					</g>
					<g>
						<rect x="65.05" y="42.47" class="st17" width="0.28" height="7.36"/>
					</g>
					<g>
						<rect x="66.97" y="42.47" class="st17" width="0.28" height="7.36"/>
					</g>
					<g>
						<rect x="68.89" y="42.47" class="st17" width="0.28" height="7.36"/>
					</g>
					<g>
						<rect x="55.62" y="47.88" class="st17" width="15.35" height="0.28"/>
					</g>
					<g>
						<rect x="55.62" y="46.06" class="st17" width="15.35" height="0.28"/>
					</g>
					<g>
						<rect x="55.62" y="44.23" class="st17" width="15.35" height="0.28"/>
					</g>
					<g>
						<rect x="55.43" y="42.42" class="st17" width="0.28" height="7.61"/>
					</g>
					<g>
						<rect x="70.82" y="42.42" class="st17" width="0.28" height="7.61"/>
					</g>
					<g>
						<rect x="55.57" y="42.41" class="st17" width="15.38" height="0.28"/>
					</g>
					<g>
						<rect x="55.57" y="49.76" class="st17" width="15.38" height="0.28"/>
					</g>
				</g>
				<g>
					<g>
						<rect x="57.36" y="49.77" class="st17" width="0.28" height="7.36"/>
					</g>
					<g>
						<rect x="59.28" y="49.77" class="st17" width="0.28" height="7.36"/>
					</g>
					<g>
						<rect x="61.2" y="49.77" class="st17" width="0.28" height="7.36"/>
					</g>
					<g>
						<rect x="63.13" y="49.77" class="st17" width="0.28" height="7.36"/>
					</g>
					<g>
						<rect x="65.05" y="49.77" class="st17" width="0.28" height="7.36"/>
					</g>
					<g>
						<rect x="66.97" y="49.77" class="st17" width="0.28" height="7.36"/>
					</g>
					<g>
						<rect x="68.89" y="49.77" class="st17" width="0.28" height="7.36"/>
					</g>
					<g>
						<rect x="55.62" y="55.19" class="st17" width="15.35" height="0.28"/>
					</g>
					<g>
						<rect x="55.62" y="53.36" class="st17" width="15.35" height="0.28"/>
					</g>
					<g>
						<rect x="55.62" y="51.53" class="st17" width="15.35" height="0.28"/>
					</g>
					<g>
						<rect x="55.43" y="49.72" class="st17" width="0.28" height="7.61"/>
					</g>
					<g>
						<rect x="70.82" y="49.72" class="st17" width="0.28" height="7.61"/>
					</g>
					<g>
						<rect x="55.57" y="49.71" class="st17" width="15.38" height="0.28"/>
					</g>
					<g>
						<rect x="55.57" y="57.06" class="st17" width="15.38" height="0.28"/>
					</g>
				</g>
				<g>
					<g>
						<rect x="72.73" y="35.17" class="st17" width="0.28" height="7.36"/>
					</g>
					<g>
						<rect x="74.65" y="35.17" class="st17" width="0.28" height="7.36"/>
					</g>
					<g>
						<rect x="76.57" y="35.17" class="st17" width="0.28" height="7.36"/>
					</g>
					<g>
						<rect x="78.5" y="35.17" class="st17" width="0.28" height="7.36"/>
					</g>
					<g>
						<rect x="80.42" y="35.17" class="st17" width="0.28" height="7.36"/>
					</g>
					<g>
						<rect x="82.34" y="35.17" class="st17" width="0.28" height="7.36"/>
					</g>
					<g>
						<rect x="84.26" y="35.17" class="st17" width="0.28" height="7.36"/>
					</g>
					<g>
						<rect x="70.99" y="40.58" class="st17" width="15.35" height="0.28"/>
					</g>
					<g>
						<rect x="70.99" y="38.75" class="st17" width="15.35" height="0.28"/>
					</g>
					<g>
						<rect x="70.99" y="36.93" class="st17" width="15.35" height="0.28"/>
					</g>
					<g>
						<rect x="70.8" y="35.11" class="st17" width="0.28" height="7.61"/>
					</g>
					<g>
						<rect x="86.19" y="35.11" class="st17" width="0.28" height="7.61"/>
					</g>
					<g>
						<rect x="70.94" y="35.11" class="st17" width="15.38" height="0.28"/>
					</g>
					<g>
						<rect x="70.94" y="42.46" class="st17" width="15.38" height="0.28"/>
					</g>
				</g>
				<g>
					<g>
						<rect x="72.73" y="42.47" class="st17" width="0.28" height="7.36"/>
					</g>
					<g>
						<rect x="74.65" y="42.47" class="st17" width="0.28" height="7.36"/>
					</g>
					<g>
						<rect x="76.57" y="42.47" class="st17" width="0.28" height="7.36"/>
					</g>
					<g>
						<rect x="78.5" y="42.47" class="st17" width="0.28" height="7.36"/>
					</g>
					<g>
						<rect x="80.42" y="42.47" class="st17" width="0.28" height="7.36"/>
					</g>
					<g>
						<rect x="82.34" y="42.47" class="st17" width="0.28" height="7.36"/>
					</g>
					<g>
						<rect x="84.26" y="42.47" class="st17" width="0.28" height="7.36"/>
					</g>
					<g>
						<rect x="70.99" y="47.88" class="st17" width="15.35" height="0.28"/>
					</g>
					<g>
						<rect x="70.99" y="46.06" class="st17" width="15.35" height="0.28"/>
					</g>
					<g>
						<rect x="70.99" y="44.23" class="st17" width="15.35" height="0.28"/>
					</g>
					<g>
						<rect x="70.8" y="42.42" class="st17" width="0.28" height="7.61"/>
					</g>
					<g>
						<rect x="86.19" y="42.42" class="st17" width="0.28" height="7.61"/>
					</g>
					<g>
						<rect x="70.94" y="42.41" class="st17" width="15.38" height="0.28"/>
					</g>
					<g>
						<rect x="70.94" y="49.76" class="st17" width="15.38" height="0.28"/>
					</g>
				</g>
				<g>
					<g>
						<rect x="72.73" y="49.77" class="st17" width="0.28" height="7.36"/>
					</g>
					<g>
						<rect x="74.65" y="49.77" class="st17" width="0.28" height="7.36"/>
					</g>
					<g>
						<rect x="76.57" y="49.77" class="st17" width="0.28" height="7.36"/>
					</g>
					<g>
						<rect x="78.5" y="49.77" class="st17" width="0.28" height="7.36"/>
					</g>
					<g>
						<rect x="80.42" y="49.77" class="st17" width="0.28" height="7.36"/>
					</g>
					<g>
						<rect x="82.34" y="49.77" class="st17" width="0.28" height="7.36"/>
					</g>
					<g>
						<rect x="84.26" y="49.77" class="st17" width="0.28" height="7.36"/>
					</g>
					<g>
						<rect x="70.99" y="55.19" class="st17" width="15.35" height="0.28"/>
					</g>
					<g>
						<rect x="70.99" y="53.36" class="st17" width="15.35" height="0.28"/>
					</g>
					<g>
						<rect x="70.99" y="51.53" class="st17" width="15.35" height="0.28"/>
					</g>
					<g>
						<rect x="70.8" y="49.72" class="st17" width="0.28" height="7.61"/>
					</g>
					<g>
						<rect x="86.19" y="49.72" class="st17" width="0.28" height="7.61"/>
					</g>
					<g>
						<rect x="70.94" y="49.71" class="st17" width="15.38" height="0.28"/>
					</g>
					<g>
						<rect x="70.94" y="57.06" class="st17" width="15.38" height="0.28"/>
					</g>
				</g>
			</g>
		</g>
		<g>
			<g>
				<path class="st5" d="M26.64,46.86v5.52h-0.68v-3.77c-0.57,1.75-0.88,3.61-0.88,5.55c0,0.3,0.01,0.59,0.02,0.89l0-0.91v-0.66
					c1.15,0,2.27,0.11,3.36,0.33c0.13,0.03,0.27,0.06,0.4,0.09V43.17C27.98,44.3,27.24,45.54,26.64,46.86z"/>
			</g>
			<g>
				<path class="st5" d="M35.35,37.99v9.75c0.64-0.76,1.39-1.41,2.22-1.95v-8.67C36.8,37.36,36.06,37.65,35.35,37.99z"/>
			</g>
			<g>
				<path class="st5" d="M32.45,39.71v13.94h-0.68V40.23c-0.8,0.64-1.54,1.35-2.22,2.12v11.7c1.23,0.32,2.41,0.77,3.52,1.34
					c-0.05-0.4-0.08-0.82-0.08-1.23c0-2.04,0.62-3.95,1.67-5.53V38.33C33.89,38.74,33.15,39.2,32.45,39.71z"/>
			</g>
			<g>
				<path class="st5" d="M38.25,36.92v8.46c0.7-0.37,1.44-0.67,2.22-0.87v-8.05C39.71,36.57,38.97,36.73,38.25,36.92z"/>
			</g>
			<g>
				<path class="st5" d="M44.05,36.33v5.52h-0.68V36.3c-0.14,0-0.28-0.01-0.42-0.01c-0.61,0-1.21,0.03-1.8,0.09v7.99
					c0.58-0.11,1.19-0.17,1.8-0.17c3.66,0,6.86,1.98,8.59,4.92l6.82-4C55.43,40.14,50.15,36.7,44.05,36.33z"/>
			</g>
			<g>
				<path class="st3" d="M26.64,52.38v-5.52c-0.26,0.57-0.48,1.16-0.68,1.76v3.77H26.64z"/>
			</g>
			<g>
				<path class="st3" d="M28.87,54.89h0.68v-0.83c-0.22-0.06-0.45-0.11-0.68-0.16V54.89z"/>
			</g>
			<g>
				<path class="st3" d="M28.87,43.17v10.72c0.23,0.05,0.45,0.1,0.68,0.16v-11.7C29.31,42.62,29.08,42.89,28.87,43.17z"/>
			</g>
			<g>
				<path class="st3" d="M32.45,53.66V39.71c-0.23,0.17-0.46,0.34-0.68,0.52v13.43H32.45z"/>
			</g>
			<g>
				<path class="st3" d="M34.67,51.24h0.68v-3.5c-0.24,0.29-0.47,0.59-0.68,0.9V51.24z"/>
			</g>
			<g>
				<path class="st3" d="M34.67,38.33v10.31c0.21-0.31,0.44-0.61,0.68-0.9v-9.75C35.12,38.1,34.89,38.21,34.67,38.33z"/>
			</g>
			<g>
				<path class="st3" d="M37.57,48.35h0.68v-2.97c-0.23,0.12-0.46,0.26-0.68,0.4V48.35z"/>
			</g>
			<g>
				<path class="st3" d="M37.57,37.12v8.67c0.22-0.14,0.45-0.28,0.68-0.4v-8.46C38.02,36.99,37.79,37.05,37.57,37.12z"/>
			</g>
			<g>
				<path class="st3" d="M40.47,46.31h0.68v-1.94c-0.23,0.04-0.46,0.09-0.68,0.15V46.31z"/>
			</g>
			<g>
				<path class="st3" d="M40.47,36.47v8.05c0.22-0.06,0.45-0.1,0.68-0.15v-7.99C40.92,36.41,40.7,36.44,40.47,36.47z"/>
			</g>
			<g>
				<path class="st3" d="M44.05,41.85v-5.52c-0.23-0.01-0.45-0.02-0.68-0.03v5.55H44.05z"/>
			</g>
		</g>
	</g>
</g>
</svg>
